<svg width="405" height="184" fill="none" xmlns="http://www.w3.org/2000/svg"><path d="M2.355 1.732L124.963 55.21l35.597-29.382.291-.242.364.064 29.017 5.122 42.717-4.555 1.287-.138-.445 1.214-1.141 3.14-.17.453-.477.064-40.233 5.665-22.876 27.957-12.243 23.054-.056.105-.089.089-33.121 32.546-.089.089-.113.056-30.628 15.739 2.776 24.963 13.036 20.974.89 1.441-1.675-.211-4.572-.566-.291-.041-.202-.226-19.987-22.277-.146-.162-.04-.218-6.571-33.12-.024-.13.024-.145 5.074-31.834-21.873-20.173L18.07 39.634l-.138-.113-.072-.162L1.294 2.808.025 0l2.33 1.732zM124.77 56.894L3.634 4.054l15.617 34.471 40.775 34.812.016.016 22.196 20.464.316.291-.073.43-5.114 32.116 6.498 32.772 19.631 21.872 2.589.324-12.235-19.688-.097-.153-.024-.186-2.857-25.7-.056-.55.501-.259 31.008-15.933 32.942-32.376 12.227-23.021.041-.073.048-.065 23.127-28.265.194-.242.316-.049 40.062-5.64.535-1.465-41.544 4.427-.113.016-.114-.016-28.758-5.074-35.685 29.463-.381.315-.453-.194z" fill="#fff"/><path d="M191.688 36.883l-44.254 23.126-2.015 1.052.898-2.087 13.991-32.554 1.481.64-13.093 30.465 42.248-22.075.744 1.433z" fill="#fff"/><path d="M125.173 55.64l21.986 2.856.518.065.153.493 8.853 28.265-1.546.486-8.698-27.78-21.468-2.783.202-1.602z" fill="#fff"/><path d="M167.995 65.22l-20.65-5.025-29.188 33.137-25.796 43.186-1.384-.834 25.837-43.25.041-.073.04-.049 29.56-33.549.315-.372.478.121 21.128 5.139-.381 1.57z" fill="#fff"/><path d="M156.019 88.363l-37.554 5.163 5.122 26.436-1.594.299L116.709 93l-.162-.842.85-.113 38.404-5.284.218 1.602z" fill="#fff"/><path d="M127.131 55.575l-8.836 37.45-.138.59-.615.032-35.83 1.861-.081-1.618 35.232-1.82 8.69-36.86 1.578.365z" fill="#fff"/><path d="M83.217 159.288l9.864 1.473-17.268-33.427-.292-.575.494-.413 40.977-34.123 1.028 1.238-40.476 33.711 17.697 34.261.72 1.4-1.553-.235-11.426-1.716.235-1.594z" fill="#fff"/><path d="M102.338 182.666l-8.561-20.554 1.489-.623 8.569 20.554-1.497.623zm14.622-89.221L85.41 64.75l-.073-.073-.057-.089-22.414-34.552 1.351-.874 22.358 34.455 31.477 28.63-1.092 1.197z" fill="#fff"/><path d="M107.541 49.23L86.437 64.8l-.097.064-.097.04-26.476 10.083-.575-1.505 26.371-10.05 21.023-15.504.955 1.303zM63.715 30.385l-44.974 9.71-.34-1.578 44.966-9.71.348 1.578z" fill="#fff"/><path d="M2.492 2.112l85.434 62.744-.955 1.303L1.53 3.415l.963-1.303zm96.01 36.381L71.305 6.053l3.747 23.207 23.45 9.233zM70.658 2.776l31.122 37.117 2.039 2.436-2.954-1.166-26.84-10.56-.43-.17-.072-.453-4.28-26.557L68.78.526l1.877 2.25zm120.998 28.952l.372 3.463 40.807-8.666.34 1.578-41.689 8.853-.882.186-.089-.89-.469-4.354 1.61-.17z" fill="#fff"/><path d="M148.696 57.525l41.754-21.824-.324-3.01-.097-.016-28.491-5.033-12.842 29.883zm42.992-20.642l-44.254 23.126-2.015 1.052.898-2.087 13.991-32.554.251-.59.631.113 29.017 5.122.559-.057.801-.089.089.81.461 4.353.057.542-.486.259z" fill="#fff"/><path d="M148.259 60.414l7.849 25.06 10.884-20.504-18.733-4.556zm6.878 27.39l-8.852-28.264-.429-1.141 1.392.113 21.128 5.139 1.011.242-.485.915-12.284 23.126-1.586 1.619.105-1.748z" fill="#fff"/><path d="M154.854 86.89l-8.132-25.983-27.165 30.839 35.297-4.855zm-7.024-27.836l8.853 28.265-.202.818-.462.226-38.404 5.284-2.152.291 1.432-1.626 29.552-33.549.946-1.076.437 1.367z" fill="#fff"/><path d="M119.031 89.884l26.412-29.988-18.765-2.436-7.647 32.424zm28.637-30.053l-29.551 33.55-2.136 2.427.736-3.14 8.561-36.276.17-.712.72.09 20.999 2.726 1.505.194-1.004 1.141z" fill="#fff"/><path d="M146.714 60.907l-27.165 30.839 35.305-4.855-8.14-25.984zm-29.819 31.405l29.552-33.549.946-1.076.429 1.367 8.853 28.265-.114.72-.55.316-38.404 5.284-2.152.291 1.44-1.618z" fill="#fff"/><path d="M153.608 88.695l-35.143 4.83 4.831 24.956 30.312-29.786zm-36.211 3.35l38.404-5.284 1.885-.825-1.214 2.2-32.78 32.417-1.804.922.105-1.214-5.284-27.27-.162-.833.85-.113z" fill="#fff"/><path d="M117.114 95.071l-23.313 39.027 28.079-14.427-4.766-24.6zm-26.29 40.282l25.99-42.928 1.084-1.812.405 2.08 5.284 27.269.113.591-.542.275-31.13 15.989-.444 2.824-.785-3.997.024-.291z" fill="#fff"/><path d="M90.92 135.199l23.467-38.712-36.843 30.685 15.69 30.377-2.37-21.363-.057-.777.049-.105.064-.105zm27.278-41.94l-25.7 43.024 2.824 25.433.478 4.337-2-3.876-17.987-34.835-.292-.575.502-.413L117 92.231l3.634-3.026-2.436 4.054z" fill="#fff"/><path d="M115.131 93.777l-32.764 1.699-4.701 29.495 37.465-31.194zm-33.5.113l35.831-1.853 2.419-.13-1.861 1.554-40.977 34.123-.939 1.376-.59-2.201 5.356-32.181.105-.648.656-.04z" fill="#fff"/><path d="M81.97 93.874l33.558-1.74-28.597-26.007-1.335-.98-24.616 9.38 20.99 19.347zm35.572-.227L81.712 95.5l-.34.016-.251-.226-22.188-20.456-.955-.882 1.214-.462 26.25-9.993.405-.154.356.26 1.723 1.27.04.032.033.024 30.061 27.334 1.594 1.117-2.112.267zM19.04 38.38l23.272-5.025-38.29-28.12L19.04 38.38zm25.36-3.82l-25.66 5.543.146.534-1.052-.995L1.27 3.092 0 .282l2.492 1.829L44.716 33.12l1.448 1.068-1.764.372z" fill="#fff"/><path d="M107.169 49.506L87.23 64.209l.761.696 29.042 26.412 8.019-34.01-.308-.13-17.575-7.671zm-21.686 13.99l21.103-15.568.372-.275.429.186 17.56 7.663.89-.736 1.853-1.53-.551 2.33-.275 1.174-8.561 36.276-.315 1.335-1.012-.922-30.061-27.335-1.497-1.36-.729-.663.794-.574z" fill="#fff"/><path d="M86.162 62.987l19.291-14.225-39.78-17.35 20.49 31.575zm21.379-13.756L86.437 64.8l-.688.51-.469-.72-22.414-34.553-1.465-2.25 2.46 1.077 43.518 18.983 1.287.559-1.125.825zm55.211 82.602c0 1.812-.235 6.951-6.717 6.951-2.686 0-5.081-.761-5.081-3.852 0-3.043 2.338-3.917 4.903-4.443 2.574-.469 5.495-.526 6.895-1.755v3.099zm-10.868-9.233c.292-3.269 2.339-4.556 5.495-4.556 2.921 0 5.373.526 5.373 4.087 0 3.39-4.734 3.212-9.816 3.973-5.146.704-10.284 2.338-10.284 9.176 0 6.198 4.555 9.055 10.284 9.055 3.682 0 7.534-.996 10.164-3.739.056.995.291 1.991.59 2.921h8.416c-.761-1.222-1.052-3.973-1.052-6.716v-15.722c0-7.251-7.242-8.594-13.263-8.594-6.781 0-13.731 2.339-14.201 10.107h8.294v.008zm23.823 20.917h8.294v-13.61c0-5.317 2.104-9.702 8.181-9.702.995 0 2.217.113 2.978.291v-7.712a6.074 6.074 0 00-1.813-.291c-4.03 0-8.124 2.63-9.645 6.425h-.122v-5.608h-7.889v30.207h.016zm21.718 0h8.295v-10.398l3.212-3.099 8.294 13.497h10.05l-12.68-19.105 11.394-11.102h-9.816l-10.454 10.868v-22.382h-8.295v41.721zm49.83-11.684c0 1.812-.235 6.951-6.724 6.951-2.687 0-5.09-.761-5.09-3.852 0-3.043 2.339-3.917 4.912-4.443 2.573-.469 5.494-.526 6.894-1.755v3.099h.008zM236.38 122.6c.291-3.269 2.338-4.556 5.494-4.556 2.921 0 5.373.526 5.373 4.087 0 3.39-4.734 3.212-9.815 3.973-5.147.704-10.285 2.338-10.285 9.176 0 6.198 4.556 9.055 10.285 9.055 3.673 0 7.533-.996 10.163-3.739.057.995.291 1.991.583 2.921h8.415c-.761-1.222-1.052-3.973-1.052-6.716v-15.722c0-7.251-7.25-8.594-13.262-8.594-6.781 0-13.732 2.339-14.202 10.107h8.303v.008zm45.387 20.917h7.889v-41.721h-8.302v15.196h-.121c-1.869-2.978-5.373-4.499-8.942-4.499-8.885 0-13.376 7.542-13.376 15.658 0 8.351 4.443 16.184 13.554 16.184 3.86 0 7.251-1.4 9.177-4.677h.113v3.859h.008zm-.121-15.196c0 4.968-1.643 9.759-7.129 9.759-5.147 0-7.307-4.969-7.307-9.703 0-4.968 1.869-9.645 7.307-9.645 5.381.008 7.129 4.685 7.129 9.589zm41.122 2.104c.583-9.29-4.385-17.94-14.67-17.94-9.176 0-15.431 6.894-15.431 15.949 0 9.346 5.899 15.893 15.431 15.893 6.837 0 11.806-3.043 14.144-10.164h-7.307c-.526 1.869-3.212 3.917-6.546 3.917-4.612 0-7.185-2.396-7.42-7.655h21.799zm-21.799-5.26c.113-2.339 1.634-6.425 6.894-6.425 4.03 0 5.842 2.217 6.603 6.425h-13.497zm25.166 18.352h8.294V125.99c0-5.899 3.973-6.951 5.607-6.951 5.26 0 5.025 4.03 5.025 7.542v16.944h8.303v-16.823c0-3.795.874-7.654 5.551-7.654 4.733 0 5.081 3.333 5.081 7.363v17.114h8.303v-20.213c0-7.825-4.613-10.811-11.046-10.811-4.207 0-7.363 2.395-9.111 5.025-1.635-3.625-5.025-5.025-8.82-5.025-3.917 0-7.073 1.813-9.233 4.912h-.113v-4.095h-7.833v30.199h-.008zm78.458-30.207h-8.585l-6.603 20.683h-.113l-6.838-20.683h-8.885l10.633 28.338c.938 2.395 0 5.373-2.865 5.664-1.634.057-3.269-.178-4.847-.291v6.838c1.7.178 3.391.291 5.082.291 5.729 0 8.585-1.991 10.398-6.838l12.623-34.002zm-254.748 43.811h-6.449v-2.282h15.48v2.282h-6.449v16.79h-2.582v-16.79zm16.791 17.162c-1.967 0-3.512-.623-4.629-1.87-1.124-1.246-1.691-2.969-1.691-5.162 0-2.339.599-4.192 1.788-5.576 1.19-1.383 2.784-2.071 4.799-2.071 1.821 0 3.285.672 4.402 2.023 1.117 1.343 1.675 3.123 1.675 5.316l-.024.834h-10.14c.098 1.383.413 2.444.947 3.164.656.882 1.691 1.327 3.116 1.327.89 0 1.666-.251 2.338-.753.664-.501 1.068-1.141 1.222-1.918h2.314c-.348 1.522-1.035 2.687-2.079 3.488-1.068.801-2.404 1.198-4.038 1.198zm3.9-8.384c-.073-1.286-.388-2.29-.963-3.01-.631-.793-1.553-1.189-2.775-1.189-1.23 0-2.209.461-2.946 1.375-.574.721-.93 1.659-1.052 2.833h7.736v-.009zm16.176 3.011c-.243 1.747-.858 3.083-1.853 3.997-.996.922-2.323 1.376-3.973 1.376-1.845 0-3.318-.664-4.41-1.983-1.101-1.319-1.651-3.107-1.651-5.349 0-2.241.566-4.021 1.707-5.348s2.67-1.991 4.588-1.991c1.675 0 3.002.453 3.998 1.368.995.914 1.529 2.168 1.594 3.77h-2.25c-.097-.995-.437-1.764-1.036-2.306-.598-.55-1.391-.817-2.387-.817-1.181 0-2.104.469-2.775 1.424-.672.947-1.004 2.25-1.004 3.908 0 1.765.316 3.1.939 3.982.623.89 1.546 1.335 2.776 1.335.906 0 1.667-.291 2.282-.882.606-.583 1.011-1.408 1.213-2.484h2.242zm2.33-14.08h2.331v7.072l.404-.518c1.012-1.181 2.282-1.772 3.803-1.772 1.538 0 2.719.413 3.545 1.246.833.834 1.246 2.015 1.246 3.544v9.508h-2.339v-8.925c0-1.149-.218-1.982-.663-2.484-.445-.51-1.157-.761-2.153-.761-1.181 0-2.112.429-2.799 1.279-.688.849-1.036 2.007-1.036 3.455v7.436h-2.331v-19.08h-.008zm28.022 0h2.946l6.854 19.072h-2.768l-1.942-5.526h-7.614l-2.007 5.526h-2.67l7.201-19.072zm-1.715 11.264h6.004l-2.945-8.456h.008l-3.067 8.456zm24.542 2.816c-.242 1.747-.865 3.083-1.861 3.997-.995.922-2.322 1.376-3.965 1.376-1.845 0-3.317-.664-4.41-1.983-1.1-1.319-1.642-3.107-1.642-5.349 0-2.241.566-4.021 1.699-5.348 1.141-1.327 2.67-1.991 4.588-1.991 1.667 0 3.002.453 3.997 1.368.996.914 1.53 2.168 1.594 3.77h-2.249c-.089-.995-.445-1.764-1.036-2.306-.591-.55-1.392-.817-2.387-.817-1.173 0-2.096.469-2.767 1.424-.672.947-1.004 2.25-1.004 3.908 0 1.765.316 3.1.931 3.982.623.89 1.553 1.335 2.783 1.335.907 0 1.667-.291 2.274-.882.607-.583 1.012-1.408 1.214-2.484h2.241zm5.988 5.373c-1.359 0-2.435-.365-3.228-1.093-.793-.728-1.19-1.707-1.19-2.945 0-1.246.373-2.234 1.125-2.97.745-.736 1.837-1.198 3.277-1.376l3.172-.404a5.21 5.21 0 00.745-.13c.299-.081.534-.234.704-.469.162-.235.243-.526.243-.882v-.113c0-.745-.284-1.327-.842-1.748-.558-.421-1.343-.631-2.347-.631-.963 0-1.715.226-2.249.671-.542.445-.866 1.109-.979 1.991h-2.153c.114-1.521.648-2.662 1.61-3.431.963-.769 2.339-1.149 4.127-1.149 1.683 0 2.97.364 3.852 1.092.882.729 1.327 1.797 1.327 3.197v7.63a.79.79 0 00.211.567c.145.145.331.21.574.21a3.304 3.304 0 00.736-.105v1.691a6.108 6.108 0 01-.712.211 3.466 3.466 0 01-.639.072c-.882 0-1.521-.242-1.918-.728-.259-.324-.445-.777-.558-1.367-.17.218-.372.42-.599.623-1.173 1.068-2.597 1.586-4.289 1.586zm4.839-5.875v-1.505c-.428.21-.906.348-1.44.429l-2.136.315c-1.125.154-1.95.413-2.468.785-.518.364-.777.866-.777 1.497 0 .777.21 1.376.639 1.797.421.42 1.028.631 1.805.631 1.23 0 2.265-.332 3.115-.996.575-.469.963-.995 1.157-1.586.041-.113.057-.283.081-.526.016-.267.024-.542.024-.841zm11.58 5.875c-1.861 0-3.342-.696-4.434-2.08-1.101-1.384-1.651-3.261-1.651-5.624 0-2.088.534-3.763 1.602-5.049 1.06-1.279 2.452-1.918 4.167-1.918 1.7 0 3.051.72 4.046 2.169l.178.259v-7.202h2.331v19.072h-2.169v-1.893l-.299.429c-.955 1.222-2.217 1.837-3.771 1.837zm.129-12.575c-1.311 0-2.265.421-2.872 1.254-.607.834-.907 2.161-.907 3.981 0 1.716.332 3.035.98 3.957.655.923 1.586 1.392 2.799 1.392 1.133 0 2.048-.421 2.735-1.278.696-.85 1.036-1.983 1.036-3.383 0-1.893-.324-3.35-.979-4.378-.647-1.027-1.578-1.545-2.792-1.545zm15.011 12.575c-1.958 0-3.504-.623-4.629-1.87-1.125-1.246-1.683-2.969-1.683-5.162 0-2.339.591-4.192 1.788-5.576 1.19-1.383 2.784-2.071 4.791-2.071 1.82 0 3.285.672 4.402 2.023 1.116 1.343 1.675 3.123 1.675 5.316l-.033.834H273.61c.097 1.383.413 2.444.947 3.164.655.882 1.699 1.327 3.115 1.327.891 0 1.667-.251 2.339-.753.664-.501 1.068-1.141 1.222-1.918h2.306c-.348 1.522-1.036 2.687-2.08 3.488-1.043.801-2.387 1.198-4.021 1.198zm3.9-8.384c-.073-1.286-.388-2.29-.963-3.01-.631-.793-1.554-1.189-2.784-1.189-1.229 0-2.209.461-2.945 1.375-.574.721-.931 1.659-1.052 2.833h7.744v-.009zm5.227-5.874h2.226v2.063l.477-.623c1.044-1.238 2.298-1.853 3.755-1.853 1.246 0 2.233.364 2.969 1.101.332.331.583.704.769 1.132l.372-.477c1.004-1.165 2.201-1.748 3.601-1.748 1.457 0 2.573.397 3.366 1.19.793.793 1.19 1.917 1.19 3.366v9.742h-2.331v-8.957c0-1.052-.218-1.853-.647-2.395-.429-.543-1.068-.818-1.893-.818-1.012 0-1.821.389-2.42 1.182-.599.785-.898 1.853-.898 3.188v7.8h-2.33v-9.507c0-.866-.195-1.53-.591-1.983-.397-.453-.971-.68-1.716-.68-1.035 0-1.885.445-2.549 1.319-.663.882-.995 2.023-.995 3.415v7.436h-2.33v-13.893h-.025zm28.12 14.339c-.818 2.136-1.538 3.536-2.177 4.191-.631.656-1.586.979-2.856.979a3.765 3.765 0 01-1.125-.137v-2.169c.356.13.801.202 1.335.202.526 0 .971-.218 1.327-.647.356-.429.761-1.238 1.206-2.428l.032-.218-5.155-14.12h2.671l3.706 11.482 3.763-11.482h2.557l-5.284 14.347z" fill="#fff"/></svg>